<?xml version="1.0" standalone="no"?><svg xmlns="http://www.w3.org/2000/svg" viewBox="0 0 1440 320"><path fill="#F5ECF3" fill-opacity="0.7" d="M0,192L24,181.3C48,171,96,149,144,149.3C192,149,240,171,288,165.3C336,160,384,128,432,144C480,160,528,224,576,256C624,288,672,288,720,288C768,288,816,288,864,277.3C912,267,960,245,1008,224C1056,203,1104,181,1152,176C1200,171,1248,181,1296,170.7C1344,160,1392,128,1416,112L1440,96L1440,0L1416,0C1392,0,1344,0,1296,0C1248,0,1200,0,1152,0C1104,0,1056,0,1008,0C960,0,912,0,864,0C816,0,768,0,720,0C672,0,624,0,576,0C528,0,480,0,432,0C384,0,336,0,288,0C240,0,192,0,144,0C96,0,48,0,24,0L0,0Z"></path></svg>